HIERARCHY
ROOT hip
{
  OFFSET 0 0 0
  CHANNELS 6 Xposition Yposition Zposition Zrotation Yrotation Xrotation
  JOINT abdomen
  {
    OFFSET 0 20.6881 -0.73152
    CHANNELS 3 Zrotation Xrotation Yrotation
    JOINT chest
    {
      OFFSET 0 11.7043 -0.48768
      CHANNELS 3 Zrotation Xrotation Yrotation
      JOINT neck
      {
        OFFSET 0 22.1894 -2.19456
        CHANNELS 3 Zrotation Xrotation Yrotation
        JOINT head
        {
          OFFSET -0.24384 7.07133 1.2192
          CHANNELS 3 Zrotation Xrotation Yrotation
          JOINT leftEye
          {
            OFFSET 4.14528 8.04674 8.04672
            CHANNELS 3 Zrotation Xrotation Yrotation
            End Site
            {
              OFFSET 1 0 0
            }
          }
          JOINT rightEye
          {
            OFFSET -3.6576 8.04674 8.04672
            CHANNELS 3 Zrotation Xrotation Yrotation
            End Site
            {
              OFFSET 1 0 0
            }
          }
        }
      }
      JOINT rCollar
      {
        OFFSET -2.68224 19.2634 -4.8768
        CHANNELS 3 Zrotation Xrotation Yrotation
        JOINT rShldr
        {
          OFFSET -8.77824 -1.95073 1.46304
          CHANNELS 3 Zrotation Xrotation Yrotation
          JOINT rForeArm
          {
            OFFSET -28.1742 -1.7115 0.48768
            CHANNELS 3 Zrotation Xrotation Yrotation
            JOINT rHand
            {
              OFFSET -22.5879 0.773209 7.07136
              CHANNELS 3 Zrotation Xrotation Yrotation
              JOINT rThumb1
              {
                OFFSET -1.2192 -0.487915 3.41376
                CHANNELS 3 Zrotation Xrotation Yrotation
                JOINT rThumb2
                {
                  OFFSET -3.37035 -0.52449 3.41376
                  CHANNELS 3 Zrotation Xrotation Yrotation
                  End Site
                  {
                    OFFSET -1.78271 -1.18214 1.43049
                  }
                }
              }
              JOINT rIndex1
              {
                OFFSET -7.75947 0.938293 5.60832
                CHANNELS 3 Zrotation Xrotation Yrotation
                JOINT rIndex2
                {
                  OFFSET -2.54057 -0.884171 1.56538
                  CHANNELS 3 Zrotation Xrotation Yrotation
                  End Site
                  {
                    OFFSET -1.62519 -0.234802 1.16502
                  }
                }
              }
              JOINT rMid1
              {
                OFFSET -8.24714 1.18213 3.41376
                CHANNELS 3 Zrotation Xrotation Yrotation
                JOINT rMid2
                {
                  OFFSET -3.10165 -0.590103 1.0647
                  CHANNELS 3 Zrotation Xrotation Yrotation
                  End Site
                  {
                    OFFSET -2.48547 -0.328903 0.83742
                  }
                }
              }
              JOINT rRing1
              {
                OFFSET -8.82822 0.546677 1.51678
                CHANNELS 3 Zrotation Xrotation Yrotation
                JOINT rRing2
                {
                  OFFSET -2.60934 -0.819778 -0.0198488
                  CHANNELS 3 Zrotation Xrotation Yrotation
                  End Site
                  {
                    OFFSET -2.33842 -0.294052 0.168128
                  }
                }
              }
              JOINT rPinky1
              {
                OFFSET -8.27202 -0.0477905 -0.4584
                CHANNELS 3 Zrotation Xrotation Yrotation
                JOINT rPinky2
                {
                  OFFSET -1.82734 -0.647385 -0.700984
                  CHANNELS 3 Zrotation Xrotation Yrotation
                  End Site
                  {
                    OFFSET -1.69225 -0.51767 -0.607171
                  }
                }
              }
            }
          }
        }
      }
      JOINT lCollar
      {
        OFFSET 2.68224 19.2634 -4.8768
        CHANNELS 3 Zrotation Xrotation Yrotation
        JOINT lShldr
        {
          OFFSET 8.77824 -1.95073 1.46304
          CHANNELS 3 Zrotation Xrotation Yrotation
          JOINT lForeArm
          {
            OFFSET 28.1742 -1.7115 0.48768
            CHANNELS 3 Zrotation Xrotation Yrotation
            JOINT lHand
            {
              OFFSET 22.5879 0.773209 7.07136
              CHANNELS 3 Zrotation Xrotation Yrotation
              JOINT lThumb1
              {
                OFFSET 1.2192 -0.487915 3.41376
                CHANNELS 3 Zrotation Xrotation Yrotation
                JOINT lThumb2
                {
                  OFFSET 3.37035 -0.52449 3.41376
                  CHANNELS 3 Zrotation Xrotation Yrotation
                  End Site
                  {
                    OFFSET 1.78271 -1.18214 1.43049
                  }
                }
              }
              JOINT lIndex1
              {
                OFFSET 7.75947 0.938293 5.60832
                CHANNELS 3 Zrotation Xrotation Yrotation
                JOINT lIndex2
                {
                  OFFSET 2.54057 -0.884171 1.56538
                  CHANNELS 3 Zrotation Xrotation Yrotation
                  End Site
                  {
                    OFFSET 1.62519 -0.234802 1.16502
                  }
                }
              }
              JOINT lMid1
              {
                OFFSET 8.24714 1.18213 3.41376
                CHANNELS 3 Zrotation Xrotation Yrotation
                JOINT lMid2
                {
                  OFFSET 3.10165 -0.590103 1.0647
                  CHANNELS 3 Zrotation Xrotation Yrotation
                  End Site
                  {
                    OFFSET 2.48547 -0.328903 0.83742
                  }
                }
              }
              JOINT lRing1
              {
                OFFSET 8.82822 0.546677 1.51678
                CHANNELS 3 Zrotation Xrotation Yrotation
                JOINT lRing2
                {
                  OFFSET 2.60934 -0.819778 -0.0198488
                  CHANNELS 3 Zrotation Xrotation Yrotation
                  End Site
                  {
                    OFFSET 2.33842 -0.294052 0.168128
                  }
                }
              }
              JOINT lPinky1
              {
                OFFSET 8.27202 -0.0477905 -0.4584
                CHANNELS 3 Zrotation Xrotation Yrotation
                JOINT lPinky2
                {
                  OFFSET 1.82734 -0.647385 -0.700984
                  CHANNELS 3 Zrotation Xrotation Yrotation
                  End Site
                  {
                    OFFSET 1.69225 -0.51767 -0.607171
                  }
                }
              }
            }
          }
        }
      }
    }
  }
  JOINT rButtock
  {
    OFFSET -8.77824 4.35084 1.2192
    CHANNELS 3 Zrotation Xrotation Yrotation
    JOINT rThigh
    {
      OFFSET 0 -1.70687 -2.19456
      CHANNELS 3 Zrotation Xrotation Yrotation
      JOINT rShin
      {
        OFFSET 0 -36.8199 0.73152
        CHANNELS 3 Zrotation Xrotation Yrotation
        JOINT rFoot
        {
          OFFSET 0.73152 -45.1104 -5.12064
          CHANNELS 3 Zrotation Xrotation Yrotation
          End Site
          {
            OFFSET -1.1221 -3.69964 12.103
          }
        }
      }
    }
  }
  JOINT lButtock
  {
    OFFSET 8.77824 4.35084 1.2192
    CHANNELS 3 Zrotation Xrotation Yrotation
    JOINT lThigh
    {
      OFFSET 0 -1.70687 -2.19456
      CHANNELS 3 Zrotation Xrotation Yrotation
      JOINT lShin
      {
        OFFSET 0 -36.8199 0.73152
        CHANNELS 3 Zrotation Xrotation Yrotation
        JOINT lFoot
        {
          OFFSET -0.73152 -45.1104 -5.12064
          CHANNELS 3 Zrotation Xrotation Yrotation
          End Site
          {
            OFFSET 1.1221 -3.69964 12.103
          }
        }
      }
    }
  }
}
MOTION
Frames:	5
Frame Time:	0.00833333
284.17 81.9994 -12.8718 0.0 0.0 0.0 -2.96294 0.00183637 -0.0799174 -0.816471 0.0169097 -0.141255 5.99863e-14 -7.95139e-16 4.47266e-16 1.7967e-13 3.18055e-15 1.49089e-15 -0.0 0.0 0.0 -0.0 0.0 0.0 3.01153e-14 -4.38724e-17 5.46658e-16 6.32298e-13 -1.67725e-16 8.54774e-15 1.08417e-11 -3.28372e-12 1.59028e-14 1.24508e-10 3.177e-12 1.29767e-12 2.93622e-10 -2.39376e-13 2.83387e-12 5.07064e-10 -4.10292e-13 4.89328e-12 2.93626e-10 -2.36951e-13 2.82433e-12 7.73091 5.47488 0.417314 2.93622e-10 -2.39734e-13 2.84024e-12 2.90554 0.965183 0.102902 2.93627e-10 -2.39138e-13 2.84024e-12 10.2786 0.731801 0.0259123 2.93619e-10 -2.38144e-13 2.84978e-12 2.22167 -0.733487 -0.20892 3.0019e-14 -4.29018e-17 1.49089e-16 6.28764e-13 -5.65294e-16 6.55989e-15 1.09048e-11 3.22826e-12 1.59028e-14 1.24444e-10 -3.35635e-12 1.31039e-12 2.93623e-10 -2.79299e-13 2.85614e-12 5.07083e-10 -4.80264e-13 4.91555e-12 2.9362e-10 -2.80286e-13 2.85932e-12 -7.73091 5.47488 -0.417314 2.93624e-10 -2.7969e-13 2.8466e-12 -2.90554 0.965183 -0.102902 2.93615e-10 -2.78895e-13 2.85216e-12 -10.2786 0.731801 -0.0259123 2.93637e-10 -2.75118e-13 2.84342e-12 -2.22167 -0.733487 0.20892 -2.03217e-16 0.0 -3.88251e-19 -1.77163 -1.93398 0.0122053 -0.00867303 -2.07864 -0.0712854 -0.478295 3.99976 0.135355 2.03217e-16 0.0 3.88251e-19 -2.72747 -9.0434 0.303155 -0.00827396 10.7979 -0.21497 0.537251 -1.7672 -0.024084
277.459 80.2471 -19.177 -161.665 -84.8586 162.403 -3.67662 1.1033 -0.0148729 -1.00772 0.464706 -0.172562 0.645496 2.44904 -0.202182 1.43185 -8.06443 -0.154597 -0.0 0.0 0.0 -0.0 0.0 0.0 2.57922e-14 -3.91642e-13 -3.69573e-14 22.5629 5.56966 0.628895 -4.33542 -1.99339 6.74589 0.00106297 0.725453 0.101927 2.73778e-10 2.78365e-10 -9.72722e-11 4.72924e-10 4.82349e-10 -1.68844e-10 2.73782e-10 2.78367e-10 -9.72809e-11 7.73091 5.47488 0.417314 2.73778e-10 2.78364e-10 -9.72677e-11 2.90554 0.965183 0.102902 2.73782e-10 2.78364e-10 -9.72682e-11 10.2786 0.731801 0.0259123 2.73773e-10 2.78365e-10 -9.7259e-11 2.22167 -0.733487 -0.20892 2.5739e-14 -3.91642e-13 -3.73152e-14 -21.8663 2.95634 -0.709773 2.0946 -0.733484 -3.4703 1.58145e-06 -0.021936 0.00308291 1.49191e-10 -1.4307e-10 -7.69349e-11 2.57387e-10 -2.47247e-10 -1.32844e-10 1.49185e-10 -1.43072e-10 -7.6928e-11 -7.73091 5.47488 -0.417314 1.4919e-10 -1.43072e-10 -7.69403e-11 -2.90554 0.965183 -0.102902 1.49184e-10 -1.43072e-10 -7.69362e-11 -10.2786 0.731801 -0.0259123 1.49202e-10 -1.43068e-10 -7.69443e-11 -2.22167 -0.733487 0.20892 -2.03217e-16 0.0 -3.88251e-19 -2.08953 -10.2203 0.753951 0.0604428 14.8889 0.182839 -1.11258 -0.0338172 -4.76945 2.03217e-16 0.0 3.88251e-19 -2.33886 -8.84414 5.18293 -0.0622276 16.3097 -0.345594 1.10658 -8.0537 3.60353
277.4 80.206 -19.0622 -162.856 -84.8185 163.632 -4.42769 2.26629 0.0627948 -1.20834 0.942102 -0.2032 1.34739 5.03577 -0.419645 2.89619 -16.5855 -0.33385 -0.0 0.0 0.0 -0.0 0.0 0.0 2.0561e-14 -8.15644e-13 -7.85914e-14 46.2755 11.4634 1.32311 -8.41532 -4.01098 13.9085 -0.00061984 1.48577 0.208807 2.72191e-10 5.88184e-10 -2.28315e-10 4.70258e-10 1.01923e-09 -3.96199e-10 2.72194e-10 5.88185e-10 -2.28323e-10 7.73091 5.47488 0.417314 2.72191e-10 5.88182e-10 -2.28313e-10 2.90554 0.965183 0.102902 2.72194e-10 5.88182e-10 -2.28314e-10 10.2786 0.731801 0.0259123 2.72182e-10 5.88183e-10 -2.28305e-10 2.22167 -0.733487 -0.20892 2.05577e-14 -8.15645e-13 -7.89082e-14 -44.9115 6.06824 -1.44762 4.20938 -1.49845 -7.13561 7.44363e-06 -0.0410342 0.00576701 2.55863e-12 -3.10112e-10 -1.24363e-10 3.9376e-12 -5.35981e-10 -2.1468e-10 2.54927e-12 -3.10114e-10 -1.24352e-10 -7.73091 5.47488 -0.417314 2.55618e-12 -3.10116e-10 -1.24364e-10 -2.90554 0.965183 -0.102902 2.55132e-12 -3.10116e-10 -1.24361e-10 -10.2786 0.731801 -0.0259123 2.56781e-12 -3.10111e-10 -1.24368e-10 -2.22167 -0.733487 0.20892 -2.03217e-16 0.0 -3.88251e-19 -2.17916 -18.9203 1.60968 -0.0557854 32.7743 0.5212 -2.52272 -4.23504 -9.94405 2.03217e-16 0.0 3.88251e-19 -1.95801 -8.57536 10.3302 -0.0887928 22.1474 -0.494698 2.59914 -14.6119 7.61218
277.313 80.1699 -18.9359 -164.511 -84.7734 165.317 -5.11148 3.30621 0.115416 -1.38875 1.36029 -0.235225 1.9887 7.34676 -0.611007 4.15432 -24.1926 -0.503419 -0.0 0.0 0.0 -0.0 0.0 0.0 1.71459e-14 -1.17484e-12 -1.11965e-13 67.3084 16.7007 1.9605 -11.6249 -5.64928 20.3284 -0.00455911 2.17633 0.305976 2.34089e-10 8.35573e-10 -2.97484e-10 4.04644e-10 1.44787e-09 -5.1632e-10 2.34092e-10 8.35574e-10 -2.97492e-10 7.73091 5.47488 0.417314 2.3409e-10 8.35571e-10 -2.97484e-10 2.90554 0.965183 0.102902 2.34092e-10 8.3557e-10 -2.97485e-10 10.2786 0.731801 0.0259123 2.34079e-10 8.35572e-10 -2.97477e-10 2.22167 -0.733487 -0.20892 1.71789e-14 -1.17484e-12 -1.12244e-13 -65.3768 8.86355 -2.1522 6.0187 -2.16819 -10.4176 1.1826e-05 -0.065808 0.00924873 -1.39673e-10 -4.28652e-10 -2.36517e-10 -2.42005e-10 -7.40782e-10 -4.08364e-10 -1.39685e-10 -4.28654e-10 -2.36503e-10 -7.73091 5.47488 -0.417314 -1.39677e-10 -4.28657e-10 -2.36514e-10 -2.90554 0.965183 -0.102902 -1.3968e-10 -4.28658e-10 -2.36513e-10 -10.2786 0.731801 -0.0259123 -1.39666e-10 -4.28653e-10 -2.3652e-10 -2.22167 -0.733487 0.20892 -2.03217e-16 0.0 -3.88251e-19 -2.01439 -26.7743 2.4661 -0.434432 48.8198 1.02152 -4.44352 -7.83886 -14.719 2.03217e-16 0.0 3.88251e-19 -1.66842 -8.26814 14.9233 -0.0847159 27.3327 -0.644714 4.75405 -20.2948 11.473
277.216 80.1355 -18.8181 -165.133 -84.8353 166.015 -5.62008 4.03848 0.105121 -1.51952 1.63048 -0.27068 2.44064 8.96878 -0.73276 5.00805 -29.5153 -0.608271 -0.0 0.0 0.0 -0.0 0.0 0.0 1.82709e-14 -1.37201e-12 -1.24688e-13 81.9256 20.3057 2.38268 -13.626 -6.65665 24.8047 -0.00889963 2.69252 0.37869 1.04704e-10 9.2689e-10 -2.11968e-10 1.81662e-10 1.6059e-09 -3.68356e-10 1.04705e-10 9.2689e-10 -2.11974e-10 7.73091 5.47488 0.417314 1.04704e-10 9.26888e-10 -2.11968e-10 2.90554 0.965183 0.102902 1.04706e-10 9.26887e-10 -2.1197e-10 10.2786 0.731801 0.0259123 1.04692e-10 9.26889e-10 -2.11962e-10 2.22167 -0.733487 -0.20892 1.83067e-14 -1.37201e-12 -1.24936e-13 -79.5386 10.8719 -2.75371 7.24933 -2.63024 -12.735 1.34618e-05 -0.10477 0.0147245 -2.70904e-10 -4.2594e-10 -5.10489e-10 -4.69182e-10 -7.35748e-10 -8.81668e-10 -2.70916e-10 -4.25942e-10 -5.10473e-10 -7.73091 5.47488 -0.417314 -2.70908e-10 -4.25945e-10 -5.10482e-10 -2.90554 0.965183 -0.102902 -2.7091e-10 -4.25946e-10 -5.10482e-10 -10.2786 0.731801 -0.0259123 -2.70898e-10 -4.25941e-10 -5.10489e-10 -2.22167 -0.733487 0.20892 -2.03217e-16 0.0 -3.88251e-19 -1.74098 -32.5318 3.11505 -1.05394 60.2691 1.69194 -6.21139 -10.2113 -18.3269 2.03217e-16 0.0 3.88251e-19 -1.53299 -7.98696 18.1449 -0.0665877 30.8876 -0.765975 6.74911 -24.1007 14.3946
